<svg xmlns="http://www.w3.org/2000/svg" xmlns:xlink="http://www.w3.org/1999/xlink" width="1280" zoomAndPan="magnify" viewBox="0 0 960 540.000001" height="720" preserveAspectRatio="xMidYMid meet" version="1.0"><defs><clipPath id="id1"><path d="M 0.886719 0 L 959.113281 0 L 959.113281 539 L 0.886719 539 Z M 0.886719 0 " clip-rule="nonzero"/></clipPath><clipPath id="id2"><path d="M 279 38 L 293 38 L 293 53.570312 L 279 53.570312 Z M 279 38 " clip-rule="nonzero"/></clipPath><clipPath id="id3"><path d="M 54.789062 25 L 70 25 L 70 41 L 54.789062 41 Z M 54.789062 25 " clip-rule="nonzero"/></clipPath><clipPath id="id4"><path d="M 503 25 L 518.929688 25 L 518.929688 41 L 503 41 Z M 503 25 " clip-rule="nonzero"/></clipPath></defs><g clip-path="url(#id1)"><path fill="#ffffff" d="M 0.886719 0 L 959.113281 0 L 959.113281 546.488281 L 0.886719 546.488281 Z M 0.886719 0 " fill-opacity="1" fill-rule="nonzero"/><path fill="#94857b" d="M 0.886719 0 L 959.113281 0 L 959.113281 539 L 0.886719 539 Z M 0.886719 0 " fill-opacity="1" fill-rule="nonzero"/><path fill="#ffffff" d="M 0.886719 0 L 959.113281 0 L 959.113281 539 L 0.886719 539 Z M 0.886719 0 " fill-opacity="1" fill-rule="nonzero"/><path fill="#94857b" d="M 0.886719 0 L 959.113281 0 L 959.113281 539 L 0.886719 539 Z M 0.886719 0 " fill-opacity="1" fill-rule="nonzero"/></g><path fill="#ffffff" d="M 281.472656 33.734375 C 281.378906 32.8125 278.875 30.328125 275.347656 28.027344 C 271.914062 25.636719 266.34375 27.9375 266.25 33.734375 C 266.34375 39.527344 271.914062 41.828125 275.347656 39.4375 C 278.875 37.136719 281.378906 34.652344 281.472656 33.734375 Z M 281.472656 33.734375 " fill-opacity="1" fill-rule="nonzero"/><path fill="#ffffff" d="M 286.023438 29.222656 C 286.949219 29.132812 289.457031 26.648438 291.777344 23.152344 C 294.191406 19.746094 291.871094 14.226562 286.023438 14.136719 C 280.175781 14.226562 277.851562 19.746094 280.265625 23.152344 C 282.585938 26.648438 285.09375 29.132812 286.023438 29.222656 Z M 286.023438 29.222656 " fill-opacity="1" fill-rule="nonzero"/><path fill="#ffffff" d="M 290.664062 33.734375 C 290.757812 34.652344 293.261719 37.136719 296.789062 39.4375 C 300.226562 41.828125 305.792969 39.527344 305.886719 33.734375 C 305.792969 27.9375 300.226562 25.636719 296.789062 28.027344 C 293.171875 30.328125 290.757812 32.8125 290.664062 33.734375 Z M 290.664062 33.734375 " fill-opacity="1" fill-rule="nonzero"/><g clip-path="url(#id2)"><path fill="#ffffff" d="M 291.871094 44.3125 C 289.550781 40.816406 287.042969 38.332031 286.113281 38.242188 C 285.1875 38.332031 282.679688 40.816406 280.359375 44.3125 C 277.945312 47.71875 280.265625 53.238281 286.113281 53.328125 C 291.964844 53.328125 294.191406 47.71875 291.871094 44.3125 Z M 291.871094 44.3125 " fill-opacity="1" fill-rule="nonzero"/></g><path fill="#ffffff" d="M 241.09375 32.996094 C 241.09375 33.484375 241.046875 33.972656 240.949219 34.449219 C 240.851562 34.929688 240.710938 35.398438 240.519531 35.847656 C 240.332031 36.300781 240.101562 36.730469 239.828125 37.136719 C 239.550781 37.542969 239.238281 37.921875 238.890625 38.265625 C 238.542969 38.613281 238.164062 38.921875 237.75 39.191406 C 237.339844 39.464844 236.90625 39.695312 236.453125 39.882812 C 235.996094 40.070312 235.527344 40.210938 235.042969 40.304688 C 234.558594 40.402344 234.066406 40.449219 233.574219 40.449219 C 233.082031 40.449219 232.589844 40.402344 232.109375 40.304688 C 231.625 40.210938 231.152344 40.070312 230.695312 39.882812 C 230.242188 39.695312 229.808594 39.464844 229.398438 39.191406 C 228.988281 38.921875 228.605469 38.613281 228.257812 38.265625 C 227.910156 37.921875 227.597656 37.542969 227.324219 37.136719 C 227.046875 36.730469 226.816406 36.300781 226.628906 35.847656 C 226.4375 35.398438 226.296875 34.929688 226.199219 34.449219 C 226.101562 33.972656 226.054688 33.484375 226.054688 32.996094 C 226.054688 32.507812 226.101562 32.023438 226.199219 31.542969 C 226.296875 31.0625 226.4375 30.597656 226.628906 30.144531 C 226.816406 29.691406 227.046875 29.261719 227.324219 28.855469 C 227.597656 28.449219 227.910156 28.074219 228.257812 27.726562 C 228.605469 27.382812 228.988281 27.070312 229.398438 26.800781 C 229.808594 26.527344 230.242188 26.300781 230.695312 26.113281 C 231.152344 25.925781 231.625 25.78125 232.109375 25.6875 C 232.589844 25.59375 233.082031 25.542969 233.574219 25.542969 C 234.066406 25.542969 234.558594 25.59375 235.042969 25.6875 C 235.527344 25.78125 235.996094 25.925781 236.453125 26.113281 C 236.90625 26.300781 237.339844 26.527344 237.75 26.800781 C 238.164062 27.070312 238.542969 27.382812 238.890625 27.726562 C 239.238281 28.074219 239.550781 28.449219 239.828125 28.855469 C 240.101562 29.261719 240.332031 29.691406 240.519531 30.144531 C 240.710938 30.597656 240.851562 31.0625 240.949219 31.542969 C 241.046875 32.023438 241.09375 32.507812 241.09375 32.996094 Z M 241.09375 32.996094 " fill-opacity="1" fill-rule="nonzero"/><path fill="#ffffff" d="M 212.503906 32.996094 C 212.503906 33.484375 212.453125 33.972656 212.359375 34.449219 C 212.261719 34.929688 212.117188 35.398438 211.929688 35.847656 C 211.742188 36.300781 211.507812 36.730469 211.234375 37.136719 C 210.960938 37.542969 210.648438 37.921875 210.300781 38.265625 C 209.949219 38.613281 209.570312 38.921875 209.160156 39.191406 C 208.75 39.464844 208.316406 39.695312 207.859375 39.882812 C 207.40625 40.070312 206.933594 40.210938 206.449219 40.304688 C 205.964844 40.402344 205.476562 40.449219 204.984375 40.449219 C 204.488281 40.449219 204 40.402344 203.515625 40.304688 C 203.03125 40.210938 202.5625 40.070312 202.105469 39.882812 C 201.648438 39.695312 201.214844 39.464844 200.804688 39.191406 C 200.394531 38.921875 200.015625 38.613281 199.667969 38.265625 C 199.316406 37.921875 199.003906 37.542969 198.730469 37.136719 C 198.457031 36.730469 198.226562 36.300781 198.035156 35.847656 C 197.847656 35.398438 197.703125 34.929688 197.609375 34.449219 C 197.511719 33.972656 197.464844 33.484375 197.464844 32.996094 C 197.464844 32.507812 197.511719 32.023438 197.609375 31.542969 C 197.703125 31.0625 197.847656 30.597656 198.035156 30.144531 C 198.226562 29.691406 198.457031 29.261719 198.730469 28.855469 C 199.003906 28.449219 199.316406 28.074219 199.667969 27.726562 C 200.015625 27.382812 200.394531 27.070312 200.804688 26.800781 C 201.214844 26.527344 201.648438 26.300781 202.105469 26.113281 C 202.5625 25.925781 203.03125 25.78125 203.515625 25.6875 C 204 25.59375 204.488281 25.542969 204.984375 25.542969 C 205.476562 25.542969 205.964844 25.59375 206.449219 25.6875 C 206.933594 25.78125 207.40625 25.925781 207.859375 26.113281 C 208.316406 26.300781 208.75 26.527344 209.160156 26.800781 C 209.570312 27.070312 209.949219 27.382812 210.300781 27.726562 C 210.648438 28.074219 210.960938 28.449219 211.234375 28.855469 C 211.507812 29.261719 211.742188 29.691406 211.929688 30.144531 C 212.117188 30.597656 212.261719 31.0625 212.359375 31.542969 C 212.453125 32.023438 212.503906 32.507812 212.503906 32.996094 Z M 212.503906 32.996094 " fill-opacity="1" fill-rule="nonzero"/><path fill="#ffffff" d="M 184.003906 32.996094 C 184.003906 33.484375 183.957031 33.972656 183.859375 34.449219 C 183.761719 34.929688 183.621094 35.398438 183.433594 35.847656 C 183.242188 36.300781 183.011719 36.730469 182.738281 37.136719 C 182.460938 37.542969 182.152344 37.921875 181.800781 38.265625 C 181.453125 38.613281 181.074219 38.921875 180.664062 39.191406 C 180.25 39.464844 179.820312 39.695312 179.363281 39.882812 C 178.90625 40.070312 178.4375 40.210938 177.953125 40.304688 C 177.46875 40.402344 176.980469 40.449219 176.484375 40.449219 C 175.992188 40.449219 175.503906 40.402344 175.019531 40.304688 C 174.535156 40.210938 174.0625 40.070312 173.609375 39.882812 C 173.152344 39.695312 172.71875 39.464844 172.308594 39.191406 C 171.898438 38.921875 171.515625 38.613281 171.167969 38.265625 C 170.820312 37.921875 170.507812 37.542969 170.234375 37.136719 C 169.957031 36.730469 169.726562 36.300781 169.539062 35.847656 C 169.347656 35.398438 169.207031 34.929688 169.109375 34.449219 C 169.015625 33.972656 168.964844 33.484375 168.964844 32.996094 C 168.964844 32.507812 169.015625 32.023438 169.109375 31.542969 C 169.207031 31.0625 169.347656 30.597656 169.539062 30.144531 C 169.726562 29.691406 169.957031 29.261719 170.234375 28.855469 C 170.507812 28.449219 170.820312 28.074219 171.167969 27.726562 C 171.515625 27.382812 171.898438 27.070312 172.308594 26.800781 C 172.71875 26.527344 173.152344 26.300781 173.609375 26.113281 C 174.0625 25.925781 174.535156 25.78125 175.019531 25.6875 C 175.503906 25.59375 175.992188 25.542969 176.484375 25.542969 C 176.980469 25.542969 177.46875 25.59375 177.953125 25.6875 C 178.4375 25.78125 178.90625 25.925781 179.363281 26.113281 C 179.820312 26.300781 180.25 26.527344 180.664062 26.800781 C 181.074219 27.070312 181.453125 27.382812 181.800781 27.726562 C 182.152344 28.074219 182.460938 28.449219 182.738281 28.855469 C 183.011719 29.261719 183.242188 29.691406 183.433594 30.144531 C 183.621094 30.597656 183.761719 31.0625 183.859375 31.542969 C 183.957031 32.023438 184.003906 32.507812 184.003906 32.996094 Z M 184.003906 32.996094 " fill-opacity="1" fill-rule="nonzero"/><path fill="#ffffff" d="M 155.414062 32.996094 C 155.414062 33.484375 155.363281 33.972656 155.269531 34.449219 C 155.171875 34.929688 155.03125 35.398438 154.839844 35.847656 C 154.652344 36.300781 154.421875 36.730469 154.144531 37.136719 C 153.871094 37.542969 153.558594 37.921875 153.210938 38.265625 C 152.863281 38.613281 152.480469 38.921875 152.070312 39.191406 C 151.660156 39.464844 151.226562 39.695312 150.769531 39.882812 C 150.316406 40.070312 149.84375 40.210938 149.359375 40.304688 C 148.875 40.402344 148.386719 40.449219 147.894531 40.449219 C 147.398438 40.449219 146.910156 40.402344 146.425781 40.304688 C 145.941406 40.210938 145.472656 40.070312 145.015625 39.882812 C 144.558594 39.695312 144.128906 39.464844 143.714844 39.191406 C 143.304688 38.921875 142.925781 38.613281 142.578125 38.265625 C 142.226562 37.921875 141.917969 37.542969 141.640625 37.136719 C 141.367188 36.730469 141.136719 36.300781 140.949219 35.847656 C 140.757812 35.398438 140.617188 34.929688 140.519531 34.449219 C 140.421875 33.972656 140.375 33.484375 140.375 32.996094 C 140.375 32.507812 140.421875 32.023438 140.519531 31.542969 C 140.617188 31.0625 140.757812 30.597656 140.949219 30.144531 C 141.136719 29.691406 141.367188 29.261719 141.640625 28.855469 C 141.917969 28.449219 142.226562 28.074219 142.578125 27.726562 C 142.925781 27.382812 143.304688 27.070312 143.714844 26.800781 C 144.128906 26.527344 144.558594 26.300781 145.015625 26.113281 C 145.472656 25.925781 145.941406 25.78125 146.425781 25.6875 C 146.910156 25.59375 147.398438 25.542969 147.894531 25.542969 C 148.386719 25.542969 148.875 25.59375 149.359375 25.6875 C 149.84375 25.78125 150.316406 25.925781 150.769531 26.113281 C 151.226562 26.300781 151.660156 26.527344 152.070312 26.800781 C 152.480469 27.070312 152.863281 27.382812 153.210938 27.726562 C 153.558594 28.074219 153.871094 28.449219 154.144531 28.855469 C 154.421875 29.261719 154.652344 29.691406 154.839844 30.144531 C 155.03125 30.597656 155.171875 31.0625 155.269531 31.542969 C 155.363281 32.023438 155.414062 32.507812 155.414062 32.996094 Z M 155.414062 32.996094 " fill-opacity="1" fill-rule="nonzero"/><path fill="#ffffff" d="M 126.914062 32.996094 C 126.914062 33.484375 126.867188 33.972656 126.769531 34.449219 C 126.675781 34.929688 126.53125 35.398438 126.34375 35.847656 C 126.152344 36.300781 125.921875 36.730469 125.648438 37.136719 C 125.375 37.542969 125.0625 37.921875 124.710938 38.265625 C 124.363281 38.613281 123.984375 38.921875 123.574219 39.191406 C 123.164062 39.464844 122.730469 39.695312 122.273438 39.882812 C 121.816406 40.070312 121.347656 40.210938 120.863281 40.304688 C 120.378906 40.402344 119.890625 40.449219 119.394531 40.449219 C 118.902344 40.449219 118.414062 40.402344 117.929688 40.304688 C 117.445312 40.210938 116.972656 40.070312 116.519531 39.882812 C 116.0625 39.695312 115.628906 39.464844 115.21875 39.191406 C 114.808594 38.921875 114.429688 38.613281 114.078125 38.265625 C 113.730469 37.921875 113.417969 37.542969 113.144531 37.136719 C 112.871094 36.730469 112.636719 36.300781 112.449219 35.847656 C 112.261719 35.398438 112.117188 34.929688 112.019531 34.449219 C 111.925781 33.972656 111.875 33.484375 111.875 32.996094 C 111.875 32.507812 111.925781 32.023438 112.019531 31.542969 C 112.117188 31.0625 112.261719 30.597656 112.449219 30.144531 C 112.636719 29.691406 112.871094 29.261719 113.144531 28.855469 C 113.417969 28.449219 113.730469 28.074219 114.078125 27.726562 C 114.429688 27.382812 114.808594 27.070312 115.21875 26.800781 C 115.628906 26.527344 116.0625 26.300781 116.519531 26.113281 C 116.972656 25.925781 117.445312 25.78125 117.929688 25.6875 C 118.414062 25.59375 118.902344 25.542969 119.394531 25.542969 C 119.890625 25.542969 120.378906 25.59375 120.863281 25.6875 C 121.347656 25.78125 121.816406 25.925781 122.273438 26.113281 C 122.730469 26.300781 123.164062 26.527344 123.574219 26.800781 C 123.984375 27.070312 124.363281 27.382812 124.710938 27.726562 C 125.0625 28.074219 125.375 28.449219 125.648438 28.855469 C 125.921875 29.261719 126.152344 29.691406 126.34375 30.144531 C 126.53125 30.597656 126.675781 31.0625 126.769531 31.542969 C 126.867188 32.023438 126.914062 32.507812 126.914062 32.996094 Z M 126.914062 32.996094 " fill-opacity="1" fill-rule="nonzero"/><path fill="#ffffff" d="M 98.324219 32.996094 C 98.324219 33.484375 98.277344 33.972656 98.179688 34.449219 C 98.082031 34.929688 97.941406 35.398438 97.75 35.847656 C 97.5625 36.300781 97.332031 36.730469 97.054688 37.136719 C 96.78125 37.542969 96.46875 37.921875 96.121094 38.265625 C 95.773438 38.613281 95.394531 38.921875 94.980469 39.191406 C 94.570312 39.464844 94.136719 39.695312 93.683594 39.882812 C 93.226562 40.070312 92.753906 40.210938 92.273438 40.304688 C 91.789062 40.402344 91.296875 40.449219 90.804688 40.449219 C 90.3125 40.449219 89.820312 40.402344 89.335938 40.304688 C 88.855469 40.210938 88.382812 40.070312 87.925781 39.882812 C 87.472656 39.695312 87.039062 39.464844 86.628906 39.191406 C 86.21875 38.921875 85.835938 38.613281 85.488281 38.265625 C 85.140625 37.921875 84.828125 37.542969 84.554688 37.136719 C 84.277344 36.730469 84.046875 36.300781 83.859375 35.847656 C 83.667969 35.398438 83.527344 34.929688 83.429688 34.449219 C 83.332031 33.972656 83.285156 33.484375 83.285156 32.996094 C 83.285156 32.507812 83.332031 32.023438 83.429688 31.542969 C 83.527344 31.0625 83.667969 30.597656 83.859375 30.144531 C 84.046875 29.691406 84.277344 29.261719 84.554688 28.855469 C 84.828125 28.449219 85.140625 28.074219 85.488281 27.726562 C 85.835938 27.382812 86.21875 27.070312 86.628906 26.800781 C 87.039062 26.527344 87.472656 26.300781 87.925781 26.113281 C 88.382812 25.925781 88.855469 25.78125 89.335938 25.6875 C 89.820312 25.59375 90.3125 25.542969 90.804688 25.542969 C 91.296875 25.542969 91.789062 25.59375 92.273438 25.6875 C 92.753906 25.78125 93.226562 25.925781 93.683594 26.113281 C 94.136719 26.300781 94.570312 26.527344 94.980469 26.800781 C 95.394531 27.070312 95.773438 27.382812 96.121094 27.726562 C 96.46875 28.074219 96.78125 28.449219 97.054688 28.855469 C 97.332031 29.261719 97.5625 29.691406 97.75 30.144531 C 97.941406 30.597656 98.082031 31.0625 98.179688 31.542969 C 98.277344 32.023438 98.324219 32.507812 98.324219 32.996094 Z M 98.324219 32.996094 " fill-opacity="1" fill-rule="nonzero"/><g clip-path="url(#id3)"><path fill="#ffffff" d="M 69.824219 32.996094 C 69.824219 33.484375 69.777344 33.972656 69.679688 34.449219 C 69.585938 34.929688 69.441406 35.398438 69.253906 35.847656 C 69.0625 36.300781 68.832031 36.730469 68.558594 37.136719 C 68.285156 37.542969 67.972656 37.921875 67.625 38.265625 C 67.273438 38.613281 66.894531 38.921875 66.484375 39.191406 C 66.074219 39.464844 65.640625 39.695312 65.183594 39.882812 C 64.726562 40.070312 64.257812 40.210938 63.773438 40.304688 C 63.289062 40.402344 62.800781 40.449219 62.304688 40.449219 C 61.8125 40.449219 61.324219 40.402344 60.839844 40.304688 C 60.355469 40.210938 59.886719 40.070312 59.429688 39.882812 C 58.972656 39.695312 58.539062 39.464844 58.128906 39.191406 C 57.71875 38.921875 57.339844 38.613281 56.988281 38.265625 C 56.640625 37.921875 56.328125 37.542969 56.054688 37.136719 C 55.78125 36.730469 55.546875 36.300781 55.359375 35.847656 C 55.171875 35.398438 55.027344 34.929688 54.933594 34.449219 C 54.835938 33.972656 54.789062 33.484375 54.789062 32.996094 C 54.789062 32.507812 54.835938 32.023438 54.933594 31.542969 C 55.027344 31.0625 55.171875 30.597656 55.359375 30.144531 C 55.546875 29.691406 55.78125 29.261719 56.054688 28.855469 C 56.328125 28.449219 56.640625 28.074219 56.988281 27.726562 C 57.339844 27.382812 57.71875 27.070312 58.128906 26.800781 C 58.539062 26.527344 58.972656 26.300781 59.429688 26.113281 C 59.886719 25.925781 60.355469 25.78125 60.839844 25.6875 C 61.324219 25.59375 61.8125 25.542969 62.304688 25.542969 C 62.800781 25.542969 63.289062 25.59375 63.773438 25.6875 C 64.257812 25.78125 64.726562 25.925781 65.183594 26.113281 C 65.640625 26.300781 66.074219 26.527344 66.484375 26.800781 C 66.894531 27.070312 67.273438 27.382812 67.625 27.726562 C 67.972656 28.074219 68.285156 28.449219 68.558594 28.855469 C 68.832031 29.261719 69.0625 29.691406 69.253906 30.144531 C 69.441406 30.597656 69.585938 31.0625 69.679688 31.542969 C 69.777344 32.023438 69.824219 32.507812 69.824219 32.996094 Z M 69.824219 32.996094 " fill-opacity="1" fill-rule="nonzero"/></g><g clip-path="url(#id4)"><path fill="#ffffff" d="M 518.929688 32.996094 C 518.929688 33.484375 518.878906 33.972656 518.785156 34.449219 C 518.6875 34.929688 518.542969 35.398438 518.355469 35.847656 C 518.167969 36.300781 517.933594 36.730469 517.660156 37.136719 C 517.386719 37.542969 517.074219 37.921875 516.726562 38.265625 C 516.375 38.613281 515.996094 38.921875 515.585938 39.191406 C 515.175781 39.464844 514.742188 39.695312 514.285156 39.882812 C 513.828125 40.070312 513.359375 40.210938 512.875 40.304688 C 512.390625 40.402344 511.902344 40.449219 511.410156 40.449219 C 510.914062 40.449219 510.425781 40.402344 509.941406 40.304688 C 509.457031 40.210938 508.988281 40.070312 508.53125 39.882812 C 508.074219 39.695312 507.640625 39.464844 507.230469 39.191406 C 506.820312 38.921875 506.441406 38.613281 506.09375 38.265625 C 505.742188 37.921875 505.429688 37.542969 505.15625 37.136719 C 504.882812 36.730469 504.652344 36.300781 504.460938 35.847656 C 504.273438 35.398438 504.128906 34.929688 504.035156 34.449219 C 503.9375 33.972656 503.890625 33.484375 503.890625 32.996094 C 503.890625 32.507812 503.9375 32.023438 504.035156 31.542969 C 504.128906 31.0625 504.273438 30.597656 504.460938 30.144531 C 504.652344 29.691406 504.882812 29.261719 505.15625 28.855469 C 505.429688 28.449219 505.742188 28.074219 506.09375 27.726562 C 506.441406 27.382812 506.820312 27.070312 507.230469 26.800781 C 507.640625 26.527344 508.074219 26.300781 508.53125 26.113281 C 508.988281 25.925781 509.457031 25.78125 509.941406 25.6875 C 510.425781 25.59375 510.914062 25.542969 511.410156 25.542969 C 511.902344 25.542969 512.390625 25.59375 512.875 25.6875 C 513.359375 25.78125 513.828125 25.925781 514.285156 26.113281 C 514.742188 26.300781 515.175781 26.527344 515.585938 26.800781 C 515.996094 27.070312 516.375 27.382812 516.726562 27.726562 C 517.074219 28.074219 517.386719 28.449219 517.660156 28.855469 C 517.933594 29.261719 518.167969 29.691406 518.355469 30.144531 C 518.542969 30.597656 518.6875 31.0625 518.785156 31.542969 C 518.878906 32.023438 518.929688 32.507812 518.929688 32.996094 Z M 518.929688 32.996094 " fill-opacity="1" fill-rule="nonzero"/></g><path fill="#ffffff" d="M 490.429688 32.996094 C 490.429688 33.484375 490.382812 33.972656 490.285156 34.449219 C 490.1875 34.929688 490.046875 35.398438 489.855469 35.847656 C 489.667969 36.300781 489.4375 36.730469 489.164062 37.136719 C 488.886719 37.542969 488.578125 37.921875 488.226562 38.265625 C 487.878906 38.613281 487.5 38.921875 487.089844 39.191406 C 486.675781 39.464844 486.242188 39.695312 485.789062 39.882812 C 485.332031 40.070312 484.863281 40.210938 484.378906 40.304688 C 483.894531 40.402344 483.402344 40.449219 482.910156 40.449219 C 482.417969 40.449219 481.929688 40.402344 481.445312 40.304688 C 480.960938 40.210938 480.488281 40.070312 480.03125 39.882812 C 479.578125 39.695312 479.144531 39.464844 478.734375 39.191406 C 478.324219 38.921875 477.941406 38.613281 477.59375 38.265625 C 477.246094 37.921875 476.933594 37.542969 476.660156 37.136719 C 476.382812 36.730469 476.152344 36.300781 475.964844 35.847656 C 475.773438 35.398438 475.632812 34.929688 475.535156 34.449219 C 475.441406 33.972656 475.390625 33.484375 475.390625 32.996094 C 475.390625 32.507812 475.441406 32.023438 475.535156 31.542969 C 475.632812 31.0625 475.773438 30.597656 475.964844 30.144531 C 476.152344 29.691406 476.382812 29.261719 476.660156 28.855469 C 476.933594 28.449219 477.246094 28.074219 477.59375 27.726562 C 477.941406 27.382812 478.324219 27.070312 478.734375 26.800781 C 479.144531 26.527344 479.578125 26.300781 480.03125 26.113281 C 480.488281 25.925781 480.960938 25.78125 481.445312 25.6875 C 481.929688 25.59375 482.417969 25.542969 482.910156 25.542969 C 483.402344 25.542969 483.894531 25.59375 484.378906 25.6875 C 484.863281 25.78125 485.332031 25.925781 485.789062 26.113281 C 486.242188 26.300781 486.675781 26.527344 487.089844 26.800781 C 487.5 27.070312 487.878906 27.382812 488.226562 27.726562 C 488.578125 28.074219 488.886719 28.449219 489.164062 28.855469 C 489.4375 29.261719 489.667969 29.691406 489.855469 30.144531 C 490.046875 30.597656 490.1875 31.0625 490.285156 31.542969 C 490.382812 32.023438 490.429688 32.507812 490.429688 32.996094 Z M 490.429688 32.996094 " fill-opacity="1" fill-rule="nonzero"/><path fill="#ffffff" d="M 461.839844 32.996094 C 461.839844 33.484375 461.789062 33.972656 461.695312 34.449219 C 461.597656 34.929688 461.457031 35.398438 461.265625 35.847656 C 461.078125 36.300781 460.84375 36.730469 460.570312 37.136719 C 460.296875 37.542969 459.984375 37.921875 459.636719 38.265625 C 459.289062 38.613281 458.90625 38.921875 458.496094 39.191406 C 458.085938 39.464844 457.652344 39.695312 457.195312 39.882812 C 456.742188 40.070312 456.269531 40.210938 455.785156 40.304688 C 455.300781 40.402344 454.8125 40.449219 454.320312 40.449219 C 453.824219 40.449219 453.335938 40.402344 452.851562 40.304688 C 452.367188 40.210938 451.898438 40.070312 451.441406 39.882812 C 450.984375 39.695312 450.550781 39.464844 450.140625 39.191406 C 449.730469 38.921875 449.351562 38.613281 449.003906 38.265625 C 448.652344 37.921875 448.34375 37.542969 448.066406 37.136719 C 447.792969 36.730469 447.5625 36.300781 447.371094 35.847656 C 447.183594 35.398438 447.042969 34.929688 446.945312 34.449219 C 446.847656 33.972656 446.800781 33.484375 446.800781 32.996094 C 446.800781 32.507812 446.847656 32.023438 446.945312 31.542969 C 447.042969 31.0625 447.183594 30.597656 447.371094 30.144531 C 447.5625 29.691406 447.792969 29.261719 448.066406 28.855469 C 448.34375 28.449219 448.652344 28.074219 449.003906 27.726562 C 449.351562 27.382812 449.730469 27.070312 450.140625 26.800781 C 450.550781 26.527344 450.984375 26.300781 451.441406 26.113281 C 451.898438 25.925781 452.367188 25.78125 452.851562 25.6875 C 453.335938 25.59375 453.824219 25.542969 454.320312 25.542969 C 454.8125 25.542969 455.300781 25.59375 455.785156 25.6875 C 456.269531 25.78125 456.742188 25.925781 457.195312 26.113281 C 457.652344 26.300781 458.085938 26.527344 458.496094 26.800781 C 458.90625 27.070312 459.289062 27.382812 459.636719 27.726562 C 459.984375 28.074219 460.296875 28.449219 460.570312 28.855469 C 460.84375 29.261719 461.078125 29.691406 461.265625 30.144531 C 461.457031 30.597656 461.597656 31.0625 461.695312 31.542969 C 461.789062 32.023438 461.839844 32.507812 461.839844 32.996094 Z M 461.839844 32.996094 " fill-opacity="1" fill-rule="nonzero"/><path fill="#ffffff" d="M 433.339844 32.996094 C 433.339844 33.484375 433.292969 33.972656 433.195312 34.449219 C 433.101562 34.929688 432.957031 35.398438 432.769531 35.847656 C 432.578125 36.300781 432.347656 36.730469 432.074219 37.136719 C 431.800781 37.542969 431.488281 37.921875 431.136719 38.265625 C 430.789062 38.613281 430.410156 38.921875 430 39.191406 C 429.589844 39.464844 429.15625 39.695312 428.699219 39.882812 C 428.242188 40.070312 427.773438 40.210938 427.289062 40.304688 C 426.804688 40.402344 426.316406 40.449219 425.820312 40.449219 C 425.328125 40.449219 424.839844 40.402344 424.355469 40.304688 C 423.871094 40.210938 423.398438 40.070312 422.945312 39.882812 C 422.488281 39.695312 422.054688 39.464844 421.644531 39.191406 C 421.234375 38.921875 420.855469 38.613281 420.503906 38.265625 C 420.15625 37.921875 419.84375 37.542969 419.570312 37.136719 C 419.296875 36.730469 419.0625 36.300781 418.875 35.847656 C 418.6875 35.398438 418.542969 34.929688 418.445312 34.449219 C 418.351562 33.972656 418.300781 33.484375 418.300781 32.996094 C 418.300781 32.507812 418.351562 32.023438 418.445312 31.542969 C 418.542969 31.0625 418.6875 30.597656 418.875 30.144531 C 419.0625 29.691406 419.296875 29.261719 419.570312 28.855469 C 419.84375 28.449219 420.15625 28.074219 420.503906 27.726562 C 420.855469 27.382812 421.234375 27.070312 421.644531 26.800781 C 422.054688 26.527344 422.488281 26.300781 422.945312 26.113281 C 423.398438 25.925781 423.871094 25.78125 424.355469 25.6875 C 424.839844 25.59375 425.328125 25.542969 425.820312 25.542969 C 426.316406 25.542969 426.804688 25.59375 427.289062 25.6875 C 427.773438 25.78125 428.242188 25.925781 428.699219 26.113281 C 429.15625 26.300781 429.589844 26.527344 430 26.800781 C 430.410156 27.070312 430.789062 27.382812 431.136719 27.726562 C 431.488281 28.074219 431.800781 28.449219 432.074219 28.855469 C 432.347656 29.261719 432.578125 29.691406 432.769531 30.144531 C 432.957031 30.597656 433.101562 31.0625 433.195312 31.542969 C 433.292969 32.023438 433.339844 32.507812 433.339844 32.996094 Z M 433.339844 32.996094 " fill-opacity="1" fill-rule="nonzero"/><path fill="#ffffff" d="M 404.75 32.996094 C 404.75 33.484375 404.703125 33.972656 404.605469 34.449219 C 404.507812 34.929688 404.367188 35.398438 404.175781 35.847656 C 403.988281 36.300781 403.757812 36.730469 403.480469 37.136719 C 403.207031 37.542969 402.894531 37.921875 402.546875 38.265625 C 402.199219 38.613281 401.816406 38.921875 401.40625 39.191406 C 400.996094 39.464844 400.5625 39.695312 400.109375 39.882812 C 399.652344 40.070312 399.179688 40.210938 398.695312 40.304688 C 398.214844 40.402344 397.722656 40.449219 397.230469 40.449219 C 396.738281 40.449219 396.246094 40.402344 395.761719 40.304688 C 395.277344 40.210938 394.808594 40.070312 394.351562 39.882812 C 393.898438 39.695312 393.464844 39.464844 393.054688 39.191406 C 392.640625 38.921875 392.261719 38.613281 391.914062 38.265625 C 391.5625 37.921875 391.253906 37.542969 390.976562 37.136719 C 390.703125 36.730469 390.472656 36.300781 390.285156 35.847656 C 390.09375 35.398438 389.953125 34.929688 389.855469 34.449219 C 389.757812 33.972656 389.710938 33.484375 389.710938 32.996094 C 389.710938 32.507812 389.757812 32.023438 389.855469 31.542969 C 389.953125 31.0625 390.09375 30.597656 390.285156 30.144531 C 390.472656 29.691406 390.703125 29.261719 390.976562 28.855469 C 391.253906 28.449219 391.5625 28.074219 391.914062 27.726562 C 392.261719 27.382812 392.640625 27.070312 393.054688 26.800781 C 393.464844 26.527344 393.898438 26.300781 394.351562 26.113281 C 394.808594 25.925781 395.277344 25.78125 395.761719 25.6875 C 396.246094 25.59375 396.738281 25.542969 397.230469 25.542969 C 397.722656 25.542969 398.214844 25.59375 398.695312 25.6875 C 399.179688 25.78125 399.652344 25.925781 400.109375 26.113281 C 400.5625 26.300781 400.996094 26.527344 401.40625 26.800781 C 401.816406 27.070312 402.199219 27.382812 402.546875 27.726562 C 402.894531 28.074219 403.207031 28.449219 403.480469 28.855469 C 403.757812 29.261719 403.988281 29.691406 404.175781 30.144531 C 404.367188 30.597656 404.507812 31.0625 404.605469 31.542969 C 404.703125 32.023438 404.75 32.507812 404.75 32.996094 Z M 404.75 32.996094 " fill-opacity="1" fill-rule="nonzero"/><path fill="#ffffff" d="M 376.25 32.996094 C 376.25 33.484375 376.203125 33.972656 376.105469 34.449219 C 376.011719 34.929688 375.867188 35.398438 375.679688 35.847656 C 375.488281 36.300781 375.257812 36.730469 374.984375 37.136719 C 374.710938 37.542969 374.398438 37.921875 374.046875 38.265625 C 373.699219 38.613281 373.320312 38.921875 372.910156 39.191406 C 372.5 39.464844 372.066406 39.695312 371.609375 39.882812 C 371.152344 40.070312 370.683594 40.210938 370.199219 40.304688 C 369.714844 40.402344 369.226562 40.449219 368.730469 40.449219 C 368.238281 40.449219 367.75 40.402344 367.265625 40.304688 C 366.78125 40.210938 366.3125 40.070312 365.855469 39.882812 C 365.398438 39.695312 364.964844 39.464844 364.554688 39.191406 C 364.144531 38.921875 363.765625 38.613281 363.414062 38.265625 C 363.066406 37.921875 362.753906 37.542969 362.480469 37.136719 C 362.207031 36.730469 361.972656 36.300781 361.785156 35.847656 C 361.597656 35.398438 361.453125 34.929688 361.355469 34.449219 C 361.261719 33.972656 361.214844 33.484375 361.214844 32.996094 C 361.214844 32.507812 361.261719 32.023438 361.355469 31.542969 C 361.453125 31.0625 361.597656 30.597656 361.785156 30.144531 C 361.972656 29.691406 362.207031 29.261719 362.480469 28.855469 C 362.753906 28.449219 363.066406 28.074219 363.414062 27.726562 C 363.765625 27.382812 364.144531 27.070312 364.554688 26.800781 C 364.964844 26.527344 365.398438 26.300781 365.855469 26.113281 C 366.3125 25.925781 366.78125 25.78125 367.265625 25.6875 C 367.75 25.59375 368.238281 25.542969 368.730469 25.542969 C 369.226562 25.542969 369.714844 25.59375 370.199219 25.6875 C 370.683594 25.78125 371.152344 25.925781 371.609375 26.113281 C 372.066406 26.300781 372.5 26.527344 372.910156 26.800781 C 373.320312 27.070312 373.699219 27.382812 374.046875 27.726562 C 374.398438 28.074219 374.710938 28.449219 374.984375 28.855469 C 375.257812 29.261719 375.488281 29.691406 375.679688 30.144531 C 375.867188 30.597656 376.011719 31.0625 376.105469 31.542969 C 376.203125 32.023438 376.25 32.507812 376.25 32.996094 Z M 376.25 32.996094 " fill-opacity="1" fill-rule="nonzero"/><path fill="#ffffff" d="M 347.660156 32.996094 C 347.660156 33.484375 347.613281 33.972656 347.515625 34.449219 C 347.417969 34.929688 347.277344 35.398438 347.085938 35.847656 C 346.898438 36.300781 346.667969 36.730469 346.394531 37.136719 C 346.117188 37.542969 345.808594 37.921875 345.457031 38.265625 C 345.109375 38.613281 344.730469 38.921875 344.316406 39.191406 C 343.90625 39.464844 343.472656 39.695312 343.019531 39.882812 C 342.5625 40.070312 342.09375 40.210938 341.609375 40.304688 C 341.125 40.402344 340.632812 40.449219 340.140625 40.449219 C 339.648438 40.449219 339.160156 40.402344 338.675781 40.304688 C 338.191406 40.210938 337.71875 40.070312 337.261719 39.882812 C 336.808594 39.695312 336.375 39.464844 335.964844 39.191406 C 335.554688 38.921875 335.171875 38.613281 334.824219 38.265625 C 334.476562 37.921875 334.164062 37.542969 333.890625 37.136719 C 333.613281 36.730469 333.382812 36.300781 333.195312 35.847656 C 333.003906 35.398438 332.863281 34.929688 332.765625 34.449219 C 332.671875 33.972656 332.621094 33.484375 332.621094 32.996094 C 332.621094 32.507812 332.671875 32.023438 332.765625 31.542969 C 332.863281 31.0625 333.003906 30.597656 333.195312 30.144531 C 333.382812 29.691406 333.613281 29.261719 333.890625 28.855469 C 334.164062 28.449219 334.476562 28.074219 334.824219 27.726562 C 335.171875 27.382812 335.554688 27.070312 335.964844 26.800781 C 336.375 26.527344 336.808594 26.300781 337.261719 26.113281 C 337.71875 25.925781 338.191406 25.78125 338.675781 25.6875 C 339.160156 25.59375 339.648438 25.542969 340.140625 25.542969 C 340.632812 25.542969 341.125 25.59375 341.609375 25.6875 C 342.09375 25.78125 342.5625 25.925781 343.019531 26.113281 C 343.472656 26.300781 343.90625 26.527344 344.316406 26.800781 C 344.730469 27.070312 345.109375 27.382812 345.457031 27.726562 C 345.808594 28.074219 346.117188 28.449219 346.394531 28.855469 C 346.667969 29.261719 346.898438 29.691406 347.085938 30.144531 C 347.277344 30.597656 347.417969 31.0625 347.515625 31.542969 C 347.613281 32.023438 347.660156 32.507812 347.660156 32.996094 Z M 347.660156 32.996094 " fill-opacity="1" fill-rule="nonzero"/></svg>